<?xml version="1.0" encoding="utf-8"?>
<!-- Generator: Adobe Illustrator 20.1.0, SVG Export Plug-In . SVG Version: 6.00 Build 0)  -->
<svg version="1.1" id="Capa_1" xmlns="http://www.w3.org/2000/svg" xmlns:xlink="http://www.w3.org/1999/xlink" x="0px" y="0px"
	 viewBox="0 0 188 107" style="enable-background:new 0 0 188 107;" xml:space="preserve">
<style type="text/css">
	.st0{fill:#D51C28;}
	.st1{fill:#FFFFFF;}
</style>
<g>
	<path class="st0" d="M0,107V0.1V0h188v107H0L0,107z"/>
	<g>
		<path class="st1" d="M26.5,49.9c-1.2,1.4-2.1,2.9-2.9,4.5l9,9l-9,9c0.8,1.6,1.7,3.1,2.9,4.5L40,63.4L26.5,49.9z"/>
		<path class="st1" d="M22.9,56.1c-1.7,4.7-1.7,9.8,0,14.5l7.3-7.3L22.9,56.1z"/>
		<path class="st1" d="M39,83.9l3.4-3.4l3.4,3.4c1.9-0.3,3.8-0.9,5.6-1.8l-9-9l-9,9C35.2,83,37.1,83.6,39,83.9"/>
		<path class="st1" d="M45.8,42.8l-3.4,3.4L39,42.8c-1.9,0.3-3.8,0.9-5.6,1.8l9,9l9-9C49.6,43.7,47.7,43.1,45.8,42.8"/>
		<path class="st1" d="M53,45.4L42.4,56L31.8,45.4c-1.5,0.9-2.9,1.9-4.1,3.2l14.7,14.7l0,0l0,0L27.7,78.1c1.3,1.3,2.7,2.3,4.1,3.2
			l10.6-10.6L53,81.3c1.5-0.9,2.9-1.9,4.1-3.2L42.4,63.4l0,0l14.7-14.7C55.9,47.4,54.5,46.3,53,45.4"/>
		<path class="st1" d="M58.3,76.8c1.2-1.4,2.1-2.9,2.9-4.5l-9-9l9-9c-0.8-1.6-1.7-3.1-2.9-4.5L44.8,63.4L58.3,76.8z"/>
		<path class="st1" d="M61.9,70.6c1.7-4.7,1.7-9.8,0-14.5l-7.3,7.3L61.9,70.6z"/>
		<path class="st1" d="M71.9,53.6H82c2.2,0,3.8,0.5,4.9,1.6c1.1,1,1.6,2.5,1.6,4.5s-0.6,3.5-1.8,4.6c-1.2,1.1-3,1.7-5.5,1.7H78v7.3
			h-6.1V53.6z M78,61.9h1.5c1.2,0,2-0.2,2.5-0.6c0.5-0.4,0.7-0.9,0.7-1.6c0-0.6-0.2-1.1-0.6-1.6c-0.4-0.4-1.2-0.6-2.3-0.6H78V61.9z"
			/>
		<path class="st1" d="M90.3,53.6h9c1.8,0,3.2,0.2,4.3,0.7c1.1,0.5,2,1.2,2.7,2.1c0.7,0.9,1.2,2,1.6,3.1c0.3,1.2,0.5,2.5,0.5,3.8
			c0,2.1-0.2,3.7-0.7,4.9s-1.1,2.1-2,2.9c-0.8,0.8-1.8,1.3-2.7,1.6c-1.3,0.4-2.5,0.5-3.6,0.5h-9V53.6H90.3z M96.4,58v10.7h1.5
			c1.3,0,2.2-0.1,2.7-0.4s1-0.8,1.3-1.5c0.3-0.7,0.5-1.8,0.5-3.4c0-2.1-0.3-3.5-1-4.3s-1.8-1.2-3.4-1.2h-1.6V58z"/>
		<polygon class="st1" points="107.5,53.6 113.9,53.6 118.3,67.7 122.7,53.6 128.8,53.6 121.5,73.2 115,73.2 		"/>
		<path class="st1" d="M128.3,66.7l5.8-0.4c0.1,0.9,0.4,1.7,0.8,2.1c0.6,0.8,1.5,1.2,2.7,1.2c0.9,0,1.5-0.2,2-0.6
			c0.5-0.4,0.7-0.9,0.7-1.4s-0.2-1-0.7-1.4c-0.4-0.4-1.5-0.8-3.1-1.1c-2.7-0.6-4.6-1.4-5.7-2.4c-1.1-1-1.7-2.3-1.7-3.8
			c0-1,0.3-2,0.9-2.9c0.6-0.9,1.5-1.6,2.6-2.1c1.2-0.5,2.8-0.8,4.8-0.8c2.5,0,4.4,0.5,5.7,1.4s2.1,2.4,2.4,4.5l-5.7,0.3
			c-0.2-0.9-0.5-1.5-1-1.9s-1.2-0.6-2-0.6c-0.7,0-1.2,0.1-1.6,0.4c-0.4,0.3-0.5,0.7-0.5,1.1c0,0.3,0.1,0.6,0.4,0.8
			c0.3,0.3,1,0.5,2,0.7c2.7,0.6,4.6,1.2,5.7,1.7c1.1,0.6,2,1.3,2.5,2.2c0.5,0.9,0.8,1.8,0.8,2.9c0,1.3-0.3,2.4-1,3.5
			c-0.7,1.1-1.7,1.9-2.9,2.4c-1.3,0.5-2.8,0.8-4.7,0.8c-3.3,0-5.7-0.6-6.9-1.9C129.2,70.3,128.5,68.7,128.3,66.7"/>
		<path class="st1" d="M160.1,70h-6.9l-1,3.2H146l7.4-19.6h6.6l7.4,19.6H161L160.1,70z M158.8,65.7l-2.2-7.1l-2.1,7.1H158.8z"/>
		<polygon class="st1" points="42.4,73.2 41.6,74 43.2,74 		"/>
		<polygon class="st1" points="42.4,80.6 43.2,79.8 41.6,79.8 		"/>
	</g>
</g>
</svg>
